PathFileType	4	(X/Y/Z)	/Users/itak/Documents/Research/Walk-IL/dataset/trc/00361_00011.trc
DataRate	CameraRate	NumFrames	NumMarkers	Units	OrigDataRate	OrigDataStartFrame	OrigNumFrames
100.000000	100.000000	4	54	mm	100.000000	281	563
Frame#	Time	RPSI			LPSI			L3			STRN			T10			C7			CLAV			RBAK			LBAK			LSHO			LUPA			LAEL			LAOL			LWTS			LWPS			LFRA			LIFD			LHPS			LHTS			RSHO			RUPA			RAEL			RAOL			RWTS			RWPS			RFRA			RIFD			RHTS			RHPS			RBHD			LFHD			RFHD			LBHD			LHIP			RHIP			RASI			LASI			LKNE			LTHI			LANK			LTIP			LTOE			LMT1			LMT5			LHEE			RKNE			RTHI			RTIP			RTOE			RMT1			RMT5			RANK			RHEE			*53			
		X1	Y1	Z1	X2	Y2	Z2	X3	Y3	Z3	X4	Y4	Z4	X5	Y5	Z5	X6	Y6	Z6	X7	Y7	Z7	X8	Y8	Z8	X9	Y9	Z9	X10	Y10	Z10	X11	Y11	Z11	X12	Y12	Z12	X13	Y13	Z13	X14	Y14	Z14	X15	Y15	Z15	X16	Y16	Z16	X17	Y17	Z17	X18	Y18	Z18	X19	Y19	Z19	X20	Y20	Z20	X21	Y21	Z21	X22	Y22	Z22	X23	Y23	Z23	X24	Y24	Z24	X25	Y25	Z25	X26	Y26	Z26	X27	Y27	Z27	X28	Y28	Z28	X29	Y29	Z29	X30	Y30	Z30	X31	Y31	Z31	X32	Y32	Z32	X33	Y33	Z33	X34	Y34	Z34	X35	Y35	Z35	X36	Y36	Z36	X37	Y37	Z37	X38	Y38	Z38	X39	Y39	Z39	X40	Y40	Z40	X41	Y41	Z41	X42	Y42	Z42	X43	Y43	Z43	X44	Y44	Z44	X45	Y45	Z45	X46	Y46	Z46	X47	Y47	Z47	X48	Y48	Z48	X49	Y49	Z49	X50	Y50	Z50	X51	Y51	Z51	X52	Y52	Z52	X53	Y53	Z53	X54	Y54	Z54	

282	2.81	-524.9081420898438	939.6646118164062	786.1103515625	-569.8233642578125	945.389404296875	663.7681884765625	-561.4834594726562	1010.447631835938	723.4937133789062	-332.5863342285156	1186.947021484375	639.8067626953125	-570.4044189453125	1124.480712890625	699.3711547851562	-524.5812377929688	1371.345092773438	674.3466186523438	-372.2213439941406	1313.697509765625	646.3072509765625	-561.661376953125	1233.099731445312	749.9158935546875	-559.2915649414062	1335.700317382812	575.2908935546875	-485.4617004394531	1354.325805664062	504.82080078125	-505.1771240234375	1238.50341796875	433.1383972167969	-453.1882019042969	1046.611083984375	383.3110961914062	-501.9555358886719	1011.205444335938	443.625	-261.2975158691406	876.6511840820312	390.8968505859375	-298.0101318359375	848.203125	339.5724487304688	-403.0589294433594	958.37890625	362.1570129394531	-175.5703277587891	740.8717651367188	371.9622192382812	-265.54541015625	787.2168579101562	338.3163452148438	-215.9172515869141	817.1709594726562	365.2905578613281	-436.3619995117188	1355.775146484375	821.2431030273438	-441.0044555664062	1293.417846679688	885.31396484375	-459.119873046875	1031.198120117188	943.2071533203125	-493.1677551269531	1018.273193359375	856.6116943359375	-337.5470886230469	806.6583251953125	909.2838745117188	-371.937744140625	793.7069702148438	976.9046020507812	-434.0361938476562	963.956298828125	958.55126953125	-319.0365295410156	633.76513671875	929.4996948242188	-306.3970947265625	707.0360107421875	928.3380126953125	-353.4518432617188	710.7634887695312	978.997314453125	-435.3531494140625	1577.237548828125	749.7608032226562	-326.78564453125	1581.40380859375	572.0406494140625	-294.9134216308594	1581.486206054688	668.0088500976562	-506.2215881347656	1574.3134765625	623.74951171875	-526.2249145507812	889.3858032226562	534.481201171875	-405.1318359375	892.1639404296875	853.865478515625	-328.1825866699219	927.53857421875	774.9102172851562	-391.9309997558594	914.47314453125	544.2400512695312	-512.626220703125	435.3976135253906	584.6942138671875	-504.6567687988281	573.987060546875	558.6028442382812	-711.868408203125	62.44479370117188	679.426025390625	-608.0903930664062	231.3765716552734	625.5218505859375	-502.7954711914062	41.50762939453125	704.4341430664062	-567.7838134765625	30.29680442810059	754.614990234375	-592.532470703125	48.58294296264648	646.5270385742188	-735.9442138671875	66.85791778564453	750.4927368164062	-218.1783142089844	465.31640625	798.0708618164062	-283.1371765136719	709.5980834960938	831.2609252929688	-159.5590515136719	368.4897155761719	781.7023315429688	75.19923400878906	146.5891571044922	653.6568603515625	14.26767539978027	120.0131988525391	631.786376953125	29.39315986633301	91.46920776367188	744.9485473632812	-69.16468811035156	65.48593902587891	765.4198608398438	-132.1440277099609	48.62897872924805	739.3145751953125	nan	nan	nan	
283	2.82	-513.0169067382812	937.0759887695312	785.5632934570312	-559.1358032226562	943.1494140625	663.6925048828125	-549.8534545898438	1008.044494628906	722.9620361328125	-322.3869323730469	1184.824584960938	636.8685302734375	-559.5499267578125	1122.309692382812	699.0513916015625	-514.2774047851562	1369.125122070312	673.0372924804688	-362.0691833496094	1311.601196289062	643.75390625	-550.68896484375	1230.794677734375	748.8673095703125	-549.9053955078125	1333.43310546875	574.3070068359375	-476.6336669921875	1351.91845703125	503.0791931152344	-496.8828735351562	1235.92919921875	431.8170471191406	-444.8268432617188	1044.001953125	381.8178100585938	-493.4247436523438	1008.571594238281	442.2922058105469	-252.2434387207031	875.0753173828125	389.6855163574219	-288.7359008789062	846.4073486328125	338.3087158203125	-394.38623046875	956.0206909179688	360.8024597167969	-165.7285919189453	739.83740234375	371.0680541992188	-255.9459381103516	785.6155395507812	337.12744140625	-206.5086669921875	815.8687133789062	364.181640625	-424.884765625	1353.405517578125	819.3635864257812	-429.5361938476562	1291.19775390625	883.4324340820312	-450.360107421875	1029.347290039062	941.8526000976562	-484.0010070800781	1016.345458984375	855.0960083007812	-330.0687561035156	803.9393920898438	909.2914428710938	-364.7772827148438	791.5133666992188	976.7586059570312	-425.8493957519531	961.9839477539062	957.5967407226562	-313.2080688476562	630.9955444335938	930.04736328125	-299.7856140136719	704.1365966796875	928.687744140625	-346.9606628417969	708.4542846679688	979.2272338867188	-424.3807983398438	1574.952880859375	748.1148681640625	-317.7414855957031	1579.614990234375	569.2008056640625	-284.844482421875	1579.529174804688	664.8429565429688	-496.6231079101562	1572.253173828125	622.8780517578125	-516.8391723632812	887.4972534179688	533.7825927734375	-392.1640625	889.9642944335938	851.91845703125	-316.41162109375	925.2841186523438	771.9869995117188	-382.3930053710938	912.4963989257812	541.8233642578125	-506.1596374511719	434.2967529296875	583.30517578125	-497.4071044921875	572.6141967773438	557.31201171875	-711.2098388671875	64.53868103027344	679.9722900390625	-604.6697387695312	231.7263488769531	625.184326171875	-502.6658935546875	41.45900344848633	704.3121337890625	-567.481201171875	30.41545104980469	754.7454833984375	-592.2999267578125	48.83187866210938	646.6646118164062	-735.0050659179688	69.88609313964844	751.11962890625	-204.5551452636719	463.9555053710938	794.3229370117188	-269.5090637207031	708.3231811523438	827.7399291992188	-146.6475677490234	367.1919860839844	777.711669921875	85.75478363037109	145.4325103759766	646.8197631835938	24.51640319824219	118.8448028564453	625.9843139648438	41.76035690307617	90.12871551513672	738.8504028320312	-56.42066192626953	64.17726898193359	760.96337890625	-119.8918991088867	47.42856597900391	735.7937622070312	nan	nan	nan	
284	2.83	-501.1602478027344	934.6900634765625	784.8499145507812	-548.27880859375	941.0230712890625	663.4368286132812	-538.1995239257812	1005.785095214844	722.2666625976562	-311.9934692382812	1182.86328125	633.9841918945312	-548.458251953125	1120.263793945312	698.64111328125	-503.84814453125	1367.031982421875	671.728515625	-351.7715454101562	1309.642211914062	641.2443237304688	-539.5643920898438	1228.653686523438	747.78955078125	-540.3541259765625	1331.2861328125	573.3634643554688	-467.6552124023438	1349.622802734375	501.3703308105469	-488.5426940917969	1233.4326171875	430.5955810546875	-436.6950378417969	1041.395874023438	380.5094909667969	-485.1165771484375	1006.036437988281	441.2080383300781	-243.6444549560547	873.2341918945312	388.5316467285156	-280.0087280273438	844.359130859375	337.1734924316406	-386.0556335449219	953.5783081054688	359.6339721679688	-156.5491180419922	738.40478515625	370.1520385742188	-246.9886322021484	783.7134399414062	336.0521545410156	-197.6769714355469	814.2286376953125	363.1130676269531	-413.315185546875	1351.214477539062	817.4964599609375	-417.9665222167969	1289.154296875	881.5589599609375	-441.3357543945312	1027.653076171875	940.3887329101562	-474.6137084960938	1014.620849609375	853.4816284179688	-322.3462219238281	801.4126586914062	909.185546875	-357.5080261230469	789.3993530273438	976.4008178710938	-417.4200439453125	960.1616821289062	956.491455078125	-307.0900573730469	628.4635009765625	930.2647094726562	-292.8866882324219	701.3985595703125	928.853759765625	-340.3620300292969	706.2157592773438	979.1400756835938	-413.2304382324219	1572.827026367188	746.4012451171875	-308.6396484375	1577.89794921875	566.278564453125	-274.6526489257812	1577.6884765625	661.5506591796875	-486.9090881347656	1570.321655273438	621.9924926757812	-507.1520690917969	885.6350708007812	533.0397338867188	-379.3578186035156	888.133056640625	849.9872436523438	-304.6517333984375	923.3619384765625	769.1810913085938	-372.6023864746094	910.5671997070312	539.50146484375	-499.1268615722656	433.2100524902344	581.8836669921875	-489.6754760742188	571.2262573242188	556.0574951171875	-710.4240112304688	66.927978515625	680.2054443359375	-600.8890380859375	232.1728820800781	624.6851806640625	-502.5655517578125	41.41760635375977	704.21337890625	-567.2402954101562	30.54889488220215	754.814453125	-591.9827880859375	49.05896377563477	646.712890625	-734.0228881835938	73.26324462890625	751.4111938476562	-190.3714904785156	463.0953063964844	790.080078125	-255.5117340087891	707.8062133789062	823.9634399414062	-133.7445678710938	365.6507568359375	773.45751953125	94.18197631835938	141.7766723632812	640.9940795898438	32.58288192749023	115.5039825439453	621.158447265625	51.53682708740234	87.15327453613281	733.9534301757812	-46.41967010498047	62.17219543457031	757.6204833984375	-110.3808670043945	45.88925552368164	733.3102416992188	nan	nan	nan	
285	2.84	-489.2898559570312	932.5726318359375	783.9501953125	-537.2144775390625	939.0487060546875	662.9713745117188	-526.5726318359375	1003.71484375	721.4180297851562	-301.398193359375	1181.093627929688	631.179443359375	-537.1650390625	1118.357666015625	698.080078125	-493.2939453125	1365.080322265625	670.41943359375	-341.3250427246094	1307.847290039062	638.7937622070312	-528.2713012695312	1226.6884765625	746.6674194335938	-530.6176147460938	1329.276123046875	572.4539794921875	-458.4955444335938	1347.474731445312	499.7031860351562	-480.1156005859375	1231.059448242188	429.4659423828125	-428.7907104492188	1038.83251953125	379.4013061523438	-477.0458068847656	1003.651550292969	440.38330078125	-235.5108795166016	871.1486206054688	387.4223327636719	-271.8569030761719	842.0698852539062	336.1662902832031	-378.0870971679688	951.0831298828125	358.6606140136719	-148.0528717041016	736.5819702148438	369.197509765625	-238.7107696533203	781.5203247070312	335.083251953125	-189.4457550048828	812.2549438476562	362.0674438476562	-401.6640319824219	1349.239013671875	815.6320190429688	-406.2994689941406	1287.331909179688	879.6910400390625	-432.0077514648438	1026.152587890625	938.806396484375	-464.947265625	1013.134521484375	851.7508544921875	-314.3440856933594	799.0936279296875	908.947509765625	-350.0638122558594	787.4019165039062	975.8326416015625	-408.6982421875	958.5286865234375	955.2269897460938	-300.6828308105469	626.168212890625	930.1834716796875	-285.7079772949219	698.833251953125	928.8270874023438	-333.6208801269531	704.0908813476562	978.7452392578125	-401.9041442871094	1570.88720703125	744.6148071289062	-299.4854431152344	1576.269897460938	563.2703247070312	-264.3425598144531	1575.985961914062	658.1262817382812	-477.0802917480469	1568.531372070312	621.0913696289062	-497.1388549804688	883.7953491210938	532.2255249023438	-366.6901245117188	886.6941528320312	848.0419921875	-292.8496398925781	921.840087890625	766.466552734375	-362.5268859863281	908.6968994140625	537.259765625	-491.4755249023438	432.1121520996094	580.4528198242188	-481.3935852050781	569.8090209960938	554.8271484375	-709.4915161132812	69.65164184570312	680.1814575195312	-596.7395629882812	232.7325286865234	624.0579833984375	-502.4966125488281	41.38976287841797	704.1388549804688	-567.0325927734375	30.70242881774902	754.826171875	-591.5781860351562	49.2934684753418	646.6727905273438	-732.9383544921875	77.04730987548828	751.4278564453125	-175.8235473632812	462.644287109375	785.4168701171875	-241.2995147705078	707.9400634765625	819.9883422851562	-120.9162063598633	363.8932189941406	768.9595947265625	100.7524948120117	136.0264587402344	635.97705078125	38.73905181884766	110.3262634277344	617.123046875	59.09773254394531	82.80915832519531	730.0408935546875	-38.75568008422852	59.62207794189453	755.2603759765625	-103.1946334838867	44.11571502685547	731.7654418945312	nan	nan	nan	
